<svg xmlns="http://www.w3.org/2000/svg" xml:space="preserve" style="fill-rule:evenodd;clip-rule:evenodd;stroke-linecap:round;stroke-linejoin:round;stroke-miterlimit:1.5" viewBox="0 0 108 108"><path d="M93.473 199.938v35.917" style="fill:none;stroke:#4a7ebf;stroke-width:5.5px" transform="matrix(.25334 0 0 .25393 30.32 22.11)"/><path d="M93.473 199.938v35.917" style="fill:none;stroke:#4a7ebf;stroke-width:5.5px" transform="matrix(.25334 0 0 .25393 35.386 20.083)"/><path d="M93.473 199.938v35.917" style="fill:none;stroke:#4a7ebf;stroke-width:5.5px" transform="matrix(.25334 0 0 .25393 25.39 19.07)"/><path d="M191.516 202.594H50.597s0 0 0 0c15.452-14.308 35.2-22.182 55.631-22.182h29.657c20.431 0 40.179 7.874 55.631 22.182 0 0 0 0 0 0Z" style="fill:none;stroke:#4a7ebf;stroke-width:4.71px" transform="matrix(-.30562 0 0 -.28553 90.998 117.469)"/><circle cx="120.58" cy="137.697" r="25.065" style="fill:none;stroke:#85b3df;stroke-width:9.85px" transform="matrix(.1415 0 0 .1415 50.255 33.804)"/><path d="M186 218h-11" style="fill:none;stroke:#85b3df;stroke-width:12.57px" transform="matrix(.11084 0 0 .11084 43.154 29.126)"/><circle cx="120.58" cy="137.697" r="25.065" style="fill:none;stroke:#4a7ebf;stroke-width:9.85px" transform="matrix(.1415 0 0 .1415 36.99 33.804)"/><circle cx="111.863" cy="218.011" r=".229" style="fill:#85b3df" transform="matrix(3.02508 0 0 3.02508 -285.557 -606.156)"/><circle cx="111.863" cy="218.011" r=".229" style="fill:#85b3df" transform="matrix(3.04987 0 0 3.04987 -285.946 -611.56)"/><path d="M64.43 218H9.876" style="fill:none;stroke:#4a7ebf;stroke-width:11px" transform="matrix(.11084 0 0 .11084 43.154 29.126)"/><circle cx="120.58" cy="137.697" r="25.065" style="fill:none;stroke:#4a7ebf;stroke-width:9.85px" transform="matrix(.1415 0 0 .1415 23.618 33.804)"/><path d="m109.402 134.602 7.989 7.849 16.445-16.386" style="fill:none;stroke:#4a7ebf;stroke-width:12.57px" transform="matrix(.11084 0 0 .11084 27.051 38.505)"/><path d="M206.912 147.925a13.422 13.422 0 0 1 1.379 14.231c-2.315 4.617-7.079 7.538-12.295 7.538H52.29c-5.246 0-10.041-2.931-12.383-7.568a13.536 13.536 0 0 1 1.324-14.326l.005-.007c10.556-13.861 27.093-22.014 44.651-22.014h75.78c17.752 0 34.486 8.19 45.242 22.142a.014.014 0 0 0 .003.004Z" style="fill:none;stroke:#4a7ebf;stroke-width:4.86px" transform="matrix(.28498 0 0 .28845 18.627 10.674)"/><path d="M53.471 21.427a18.505 18.505 0 0 0-28.499 15.586l.024 33.5A18.503 18.503 0 0 0 53.27 86.215l26.5-16.477a18.503 18.503 0 0 0 .225-31.287L53.471 21.427Zm-4.053 6.316a10.999 10.999 0 0 0-16.942 9.265l.024 33.5a11 11 0 0 0 16.808 9.334l26.5-16.477a10.999 10.999 0 0 0 .134-18.598L49.418 27.743Z" style="fill:#85b3df" transform="matrix(.18568 0 0 .18568 44.36 27.725)"/><path d="m43.476 37 .024 33.5L70 54.024 43.476 37Z" style="fill:#85b3df" transform="matrix(.18568 0 0 .18568 44.36 27.725)"/><path d="M41.562 91.102a36.4 36.4 0 0 1-.716-7.231c0-22.395 19.85-40.577 44.299-40.577 24.45 0 44.3 18.182 44.3 40.577 0 2.482-.244 4.911-.724 7.267" style="fill:none;stroke:#4a7ebf;stroke-width:3.64px" transform="matrix(.366 0 0 .39958 22.836 10.7)"/></svg>